<svg xmlns="http://www.w3.org/2000/svg" viewBox="0 0 60 40" role="img" aria-labelledby="title">
  <title>Flag of India</title>
  <rect width="60" height="40" fill="#fff"/>
  <rect width="60" height="13.333" y="0" fill="#ff9933"/>
  <rect width="60" height="13.333" y="26.667" fill="#138808"/>
  <g transform="translate(30 20)" fill="none" stroke="#000080">
    <circle r="4.2" stroke-width="0.9"/>
    <circle r="0.55" fill="#000080" stroke="none"/>
    <g stroke-width="0.45" stroke-linecap="round">
      <path d="M0-4.2V-0.9"/>
      <path d="M1.087-4.057L0.233-0.869"/>
      <path d="M2.1-3.637L0.45-0.779"/>
      <path d="M2.97-2.97L0.636-0.636"/>
      <path d="M3.637-2.1L0.779-0.45"/>
      <path d="M4.057-1.087L0.869-0.233"/>
      <path d="M4.2 0H0.9"/>
      <path d="M4.057 1.087L0.869 0.233"/>
      <path d="M3.637 2.1L0.779 0.45"/>
      <path d="M2.97 2.97L0.636 0.636"/>
      <path d="M2.1 3.637L0.45 0.779"/>
      <path d="M1.087 4.057L0.233 0.869"/>
      <path d="M0 4.2V0.9"/>
      <path d="M-1.087 4.057L-0.233 0.869"/>
      <path d="M-2.1 3.637L-0.45 0.779"/>
      <path d="M-2.97 2.97L-0.636 0.636"/>
      <path d="M-3.637 2.1L-0.779 0.45"/>
      <path d="M-4.057 1.087L-0.869 0.233"/>
      <path d="M-4.2 0H-0.9"/>
      <path d="M-4.057-1.087L-0.869-0.233"/>
      <path d="M-3.637-2.1L-0.779-0.45"/>
      <path d="M-2.97-2.97L-0.636-0.636"/>
      <path d="M-2.1-3.637L-0.45-0.779"/>
      <path d="M-1.087-4.057L-0.233-0.869"/>
    </g>
  </g>
</svg>
